{"accessors" : [{"bufferView" : 0, "byteOffset" : 0, "componentType" : 5123, "count" : 8466, "type" : "SCALAR", "max" : [7065], "min" : [0]}, {"bufferView" : 1, "byteOffset" : 0, "componentType" : 5126, "count" : 7066, "type" : "VEC3", "max" : [190.96043395996094, 101.61783599853516, 117.40707397460938], "min" : [-178.327392578125, -101.61785888671875, 0.2951946258544922], "name" : "POSITION"}, {"bufferView" : 1, "byteOffset" : 12, "componentType" : 5126, "count" : 7066, "type" : "VEC3", "max" : [0.9998316168785095, 1.0000044107437134, 0.9998349547386169], "min" : [-1.0000044107437134, -1.0000016689300537, -0.9999772310256958], "name" : "NORMAL"}, {"bufferView" : 1, "byteOffset" : 24, "componentType" : 5126, "count" : 7066, "type" : "VEC3", "max" : [1, 1, 1], "min" : [1, 1, 1], "name" : "COLOR_0"}, {"bufferView" : 1, "byteOffset" : 36, "componentType" : 5126, "count" : 7066, "type" : "VEC2", "max" : [0.8880749940872192, -0.7642158269882202], "min" : [0.3030374348163605, -0.9555271863937378], "name" : "TEXCOORD_0"}, {"bufferView" : 0, "byteOffset" : 16932, "componentType" : 5123, "count" : 564, "type" : "SCALAR", "max" : [526], "min" : [0]}, {"bufferView" : 2, "byteOffset" : 0, "componentType" : 5126, "count" : 527, "type" : "VEC3", "max" : [168.13009643554688, 99.80015563964844, 94.14237976074219], "min" : [-163.1112518310547, -99.80018615722656, 8.234315872192383], "name" : "POSITION"}, {"bufferView" : 2, "byteOffset" : 12, "componentType" : 5126, "count" : 527, "type" : "VEC3", "max" : [0.5147383213043213, 0.9999951720237732, 0.9434455633163452], "min" : [-0.9979864358901978, -0.16714009642601013, -3.957524654651934E-07], "name" : "NORMAL"}, {"bufferView" : 2, "byteOffset" : 24, "componentType" : 5126, "count" : 527, "type" : "VEC3", "max" : [1, 1, 1], "min" : [1, 1, 1], "name" : "COLOR_0"}, {"bufferView" : 2, "byteOffset" : 36, "componentType" : 5126, "count" : 527, "type" : "VEC2", "max" : [0.9697081446647644, -0.7775809168815613], "min" : [0.050282515585422516, -0.946730375289917], "name" : "TEXCOORD_0"}], "asset" : {"generator" : "Aspose.3D 22.1", "version" : "2.0"}, "buffers" : [{"uri" : "data:application/octet-stream;base64,", "byteLength" : 415392}], "bufferViews" : [{"buffer" : 0, "byteOffset" : 0, "byteLength" : 18060, "target" : 34963}, {"buffer" : 0, "byteOffset" : 18064, "byteLength" : 372504, "byteStride" : 44, "target" : 34962}, {"buffer" : 0, "byteOffset" : 390572, "byteLength" : 24816, "byteStride" : 44, "target" : 34962}], "materials" : [{"name" : "", "pbrMetallicRoughness" : {"baseColorFactor" : [0.2158605009317398, 0.2158605009317398, 0.2158605009317398, 1], "metallicFactor" : 0, "roughnessFactor" : 0}, "emissiveFactor" : [0, 0, 0], "alphaMode" : "OPAQUE", "doubleSided" : false}, {"name" : "", "pbrMetallicRoughness" : {"baseColorFactor" : [0.2158605009317398, 0.2158605009317398, 0.2158605009317398, 1], "metallicFactor" : 0, "roughnessFactor" : 0}, "emissiveFactor" : [0, 0, 0], "alphaMode" : "OPAQUE", "doubleSided" : false}], "meshes" : [{"primitives" : [{"attributes" : {"POSITION" : 1, "NORMAL" : 2, "COLOR_0" : 3, "TEXCOORD_0" : 4}, "indices" : 0, "material" : 0, "mode" : 4}, {"attributes" : {"POSITION" : 6, "NORMAL" : 7, "COLOR_0" : 8, "TEXCOORD_0" : 9}, "indices" : 5, "material" : 1, "mode" : 4}], "name" : "Voyager"}], "nodes" : [{"mesh" : 0, "name" : "Voyager"}, {"children" : [0], "name" : "Voyager"}], "scene" : 0, "scenes" : [{"nodes" : [1]}]}